<svg id="Layer_1" data-name="Layer 1" xmlns="http://www.w3.org/2000/svg" viewBox="0 0 144.09 69.47"><defs><style>.cls-1{fill:#4f66c3;}.cls-2{fill:#fff;}.cls-3{fill:#252d38;}</style></defs><path class="cls-1" d="M144.09,10.22V6.86a2.62,2.62,0,0,1-.28-5.22A2.85,2.85,0,0,0,141.23,0h-110a1.41,1.41,0,0,1-1.39,1.28A1.41,1.41,0,0,1,28.4,0H2.86A2.84,2.84,0,0,0,.28,1.64a2.61,2.61,0,0,1,2.34,2.6A2.62,2.62,0,0,1,0,6.86v3.36a2.62,2.62,0,0,1,2.62,2.62A2.62,2.62,0,0,1,0,15.47v3.36a2.62,2.62,0,0,1,0,5.24v4a2.62,2.62,0,0,1,2.62,2.62A2.62,2.62,0,0,1,0,33.33V36.7a2.62,2.62,0,1,1,0,5.24V45.3a2.62,2.62,0,0,1,2.62,2.63A2.62,2.62,0,0,1,0,50.55v3.36a2.62,2.62,0,0,1,0,5.24v3.79a2.62,2.62,0,0,1,2.62,2.62A2.63,2.63,0,0,1,.45,68.14a2.87,2.87,0,0,0,2.41,1.33H28.4a1.39,1.39,0,0,1,2.78,0h110a2.88,2.88,0,0,0,2.41-1.33,2.62,2.62,0,0,1,.45-5.2V59.15a2.62,2.62,0,1,1,0-5.24V50.55a2.63,2.63,0,1,1,0-5.25V41.94a2.62,2.62,0,1,1,0-5.24V33.33a2.62,2.62,0,1,1,0-5.24v-4a2.62,2.62,0,1,1,0-5.24V15.47a2.63,2.63,0,1,1,0-5.25ZM29.79,66.4a1.4,1.4,0,1,1,1.4-1.4A1.4,1.4,0,0,1,29.79,66.4Zm0-4.6a1.4,1.4,0,1,1,1.4-1.4A1.4,1.4,0,0,1,29.79,61.8Zm0-4.59a1.4,1.4,0,1,1,1.4-1.4A1.4,1.4,0,0,1,29.79,57.21Zm0-4.82a1.4,1.4,0,1,1,1.4-1.4A1.4,1.4,0,0,1,29.79,52.39Zm0-4.6a1.4,1.4,0,1,1,1.4-1.4A1.4,1.4,0,0,1,29.79,47.79Zm0-4.59a1.4,1.4,0,1,1,1.4-1.4A1.4,1.4,0,0,1,29.79,43.2Zm0-4.6a1.4,1.4,0,1,1,1.4-1.39A1.4,1.4,0,0,1,29.79,38.6Zm0-4.94a1.4,1.4,0,1,1,1.4-1.4A1.4,1.4,0,0,1,29.79,33.66Zm0-4.59a1.4,1.4,0,1,1,1.4-1.4A1.4,1.4,0,0,1,29.79,29.07Zm0-4.6a1.4,1.4,0,1,1,1.4-1.4A1.4,1.4,0,0,1,29.79,24.47Zm0-4.59a1.4,1.4,0,1,1,1.4-1.4A1.4,1.4,0,0,1,29.79,19.88Zm0-4.82a1.4,1.4,0,1,1,1.4-1.4A1.4,1.4,0,0,1,29.79,15.06Zm0-4.6a1.4,1.4,0,1,1,1.4-1.4A1.4,1.4,0,0,1,29.79,10.46Zm0-4.59a1.4,1.4,0,1,1,1.4-1.4A1.4,1.4,0,0,1,29.79,5.87Z"/><path class="cls-1" d="M59,3.07H29.79a1.4,1.4,0,1,1,0,2.8v1.8a1.4,1.4,0,1,1,0,2.79v1.8a1.4,1.4,0,1,1,0,2.8V16.9h43A13.83,13.83,0,0,0,59,3.07Z"/><rect class="cls-2" x="85.67" y="25.81" width="61.72" height="17.62" rx="1.25" transform="translate(81.91 151.15) rotate(-90)"/><path class="cls-3" d="M123.79,62.61v.2H109.27v-.2Zm-14.52-.5v.2h14.52v-.2Zm0-4.53v.2h14.52v-.2Zm0-.76V57h14.52v-.21Zm0-.75v.2h14.52v-.2Zm0-.83v.53h14.52v-.53Zm0-.47V55h14.52v-.27Zm0-1.07v.87h14.52V53.7Zm0-1v.59h14.52v-.59Zm0-1.46v.59h14.52v-.59Zm0-21.65v.2h14.52v-.2Zm0-.76V29h14.52v-.2Zm0-.75v.2h14.52v-.2Zm0-.83v.53h14.52v-.53Zm0-.47V27h14.52v-.27Zm0-1.07v.87h14.52v-.87Zm0-1v.59h14.52v-.59Zm0-1.46v.59h14.52v-.59Zm0-1.36v.59h14.52v-.59Zm0-1.46V21h14.52v-.59Zm0,29v1.32h14.52V49.41Zm0-1.47v1.18h14.52V47.94Zm0-1.23v.92h14.52v-.92Zm0,14.9v.2h14.52v-.2Zm0-.88v.57h14.52v-.57Zm0-1.06v.88h14.52v-.88Zm0-1.34v1.16h14.52V58.33Zm0-38.7v.2h14.52v-.2Zm0-.5v.2h14.52v-.2Zm0-4.53v.2h14.52v-.2Zm0-.76V14h14.52v-.2Zm0-.75v.2h14.52v-.2Zm0-.83v.53h14.52v-.53Zm0-.47v.27h14.52v-.27Zm0-1.07v.87h14.52v-.87Zm0-1v.59h14.52V9.69Zm0-1.46v.59h14.52V8.23Zm0-1.81V7.75h14.52V6.42Zm0,12.2v.2h14.52v-.2Zm0-.87v.57h14.52v-.57Zm0-1.06v.88h14.52v-.88Zm0-1.34V16.5h14.52V15.35Zm0,30.75v.21h14.52V46.1Zm0-.5v.2h14.52v-.2Zm0-4.53v.2h14.52v-.2Zm0-.75v.2h14.52v-.2Zm0-.76v.2h14.52v-.2Zm0-.83v.53h14.52v-.53Zm0-.46v.26h14.52v-.26Zm0-1.07v.86h14.52V37.2Zm0-1v.6h14.52v-.6Zm0-1.46v.6h14.52v-.6Zm0-1.14v.66h14.52v-.66Zm0-2v1.06h14.52V31.56Zm0-1.36v.92h14.52V30.2Zm0,14.9v.2h14.52v-.2Zm0-.88v.58h14.52v-.58Zm0-1.06V44h14.52v-.88Zm0-1.33V43h14.52V41.83Z"/></svg>